PathFileType	4	(X/Y/Z)	 control3min.trc
DataRate	CameraRate	NumFrames	NumMarkers	Units	OrigDataRate	OrigDataStartFrame	OrigNumFrames
200	200	11	35	m	200	501	1000
Frame#	Time	C7			LSH			RSH			MAN			RASI			LASI			HIPR			HIPL			RPSI			LPSI			COX			RTHI1			RTHI2			RTHI3			RTHI4			RSHA1			RSHA2			RSHA3			RSHA4			RHEEL			RMET5			RMET1			RTOE			LTHI1			LTHI2			LTHI3			LTHI4			LSHA1			LSHA2			LSHA3			LSHA4			LHEEL			LMET5			LMET1			LTOE			
		X1	Y1	Z1	X2	Y2	Z2	X3	Y3	Z3	X4	Y4	Z4	X5	Y5	Z5	X6	Y6	Z6	X7	Y7	Z7	X8	Y8	Z8	X9	Y9	Z9	X10	Y10	Z10	X11	Y11	Z11	X12	Y12	Z12	X13	Y13	Z13	X14	Y14	Z14	X15	Y15	Z15	X16	Y16	Z16	X17	Y17	Z17	X18	Y18	Z18	X19	Y19	Z19	X20	Y20	Z20	X21	Y21	Z21	X22	Y22	Z22	X23	Y23	Z23	X24	Y24	Z24	X25	Y25	Z25	X26	Y26	Z26	X27	Y27	Z27	X28	Y28	Z28	X29	Y29	Z29	X30	Y30	Z30	X31	Y31	Z31	X32	Y32	Z32	X33	Y33	Z33	X34	Y34	Z34	X35	Y35	Z35	
501	2.5050	-0.275282	1.446414	-0.548764	-0.200285	1.435506	-0.717613	-0.225321	1.435062	-0.377000	-0.145995	1.402515	-0.543787	-0.130332	1.001348	-0.419452	-0.119326	1.002827	-0.641046	-0.186340	1.060638	-0.397716	-0.174074	1.052652	-0.674282	-0.283021	1.042467	-0.484866	-0.282004	1.041828	-0.591187	-0.284123	1.049426	-0.534414	-0.234295	0.804944	-0.367457	-0.218755	0.747397	-0.364879	-0.156397	0.762699	-0.354572	-0.164850	0.823445	-0.356869	-0.252035	0.418104	-0.363986	-0.264584	0.376783	-0.368391	-0.204786	0.365958	-0.372025	-0.196826	0.405692	-0.371911	-0.329418	0.141002	-0.427996	-0.210048	0.037275	-0.382587	-0.179391	0.041237	-0.449424	-0.156885	0.030681	-0.446217	-0.209022	0.803964	-0.719098	-0.186775	0.746612	-0.719122	-0.125155	0.764556	-0.712696	-0.138418	0.823515	-0.712193	-0.241448	0.386730	-0.724839	-0.254551	0.348389	-0.724830	-0.193910	0.334905	-0.714391	-0.188577	0.378624	-0.716414	-0.332889	0.132928	-0.682802	-0.203489	0.045574	-0.721775	-0.173998	0.046721	-0.659130	-0.151935	0.036301	-0.658572	
502	2.5100	-0.275253	1.448791	-0.548755	-0.200511	1.438358	-0.717293	-0.224976	1.437857	-0.377143	-0.146282	1.405185	-0.543811	-0.130275	1.003576	-0.419746	-0.119344	1.005092	-0.641144	-0.186141	1.063025	-0.397885	-0.173975	1.055145	-0.674345	-0.282717	1.045125	-0.484942	-0.281717	1.044603	-0.591186	-0.283906	1.052073	-0.534496	-0.234749	0.807188	-0.367892	-0.219396	0.749594	-0.365248	-0.157046	0.764661	-0.354369	-0.165331	0.825487	-0.356736	-0.252397	0.419769	-0.364014	-0.264667	0.378383	-0.368311	-0.204795	0.367909	-0.371721	-0.197076	0.407699	-0.371695	-0.328366	0.142727	-0.427117	-0.209442	0.038423	-0.382593	-0.178868	0.042098	-0.448733	-0.156617	0.031347	-0.445055	-0.210074	0.806431	-0.718614	-0.187867	0.749059	-0.718997	-0.126145	0.766958	-0.713646	-0.139346	0.825918	-0.712918	-0.241335	0.388542	-0.725200	-0.254376	0.350176	-0.725228	-0.193750	0.336785	-0.714605	-0.188479	0.380522	-0.716610	-0.332546	0.134481	-0.683439	-0.202723	0.047653	-0.722294	-0.173226	0.048884	-0.659699	-0.151121	0.038463	-0.659127	
503	2.5150	-0.275283	1.450914	-0.548546	-0.200754	1.440864	-0.717010	-0.224634	1.440349	-0.377250	-0.146534	1.407528	-0.543828	-0.130252	1.005551	-0.420041	-0.119389	1.007111	-0.641249	-0.185913	1.065146	-0.398034	-0.173943	1.057357	-0.674428	-0.282468	1.047523	-0.484995	-0.281502	1.047118	-0.591191	-0.283728	1.054456	-0.534562	-0.235182	0.809164	-0.368407	-0.219991	0.751538	-0.365696	-0.157662	0.766384	-0.354245	-0.165802	0.827292	-0.356660	-0.252567	0.421226	-0.364005	-0.264617	0.379806	-0.368211	-0.204686	0.369610	-0.371522	-0.197166	0.409440	-0.371570	-0.327578	0.144251	-0.426356	-0.208872	0.039737	-0.382444	-0.178340	0.043087	-0.447978	-0.156293	0.032192	-0.443816	-0.211112	0.808536	-0.718056	-0.188914	0.751146	-0.718770	-0.127112	0.769040	-0.714539	-0.140284	0.827997	-0.713594	-0.241157	0.390212	-0.725517	-0.254211	0.351837	-0.725570	-0.193625	0.338443	-0.714713	-0.188342	0.382187	-0.716730	-0.332438	0.135875	-0.683985	-0.202001	0.049864	-0.722883	-0.172490	0.051109	-0.660273	-0.150323	0.040642	-0.659653	
504	2.5200	-0.275354	1.452727	-0.548178	-0.200931	1.443105	-0.716735	-0.224303	1.442521	-0.377337	-0.146748	1.409552	-0.543840	-0.130262	1.007258	-0.420320	-0.119462	1.008888	-0.641359	-0.185669	1.067006	-0.398165	-0.173974	1.059286	-0.674524	-0.282274	1.049666	-0.485025	-0.281365	1.049357	-0.591215	-0.283594	1.056581	-0.534600	-0.235581	0.810883	-0.368961	-0.220530	0.753231	-0.366203	-0.158240	0.767885	-0.354218	-0.166245	0.828850	-0.356645	-0.252528	0.422505	-0.363951	-0.264426	0.381052	-0.368076	-0.204455	0.371056	-0.371427	-0.197080	0.410925	-0.371534	-0.327061	0.145575	-0.425756	-0.208342	0.041220	-0.382105	-0.177808	0.044218	-0.447139	-0.155901	0.033250	-0.442494	-0.212114	0.810272	-0.717454	-0.189894	0.752876	-0.718461	-0.128037	0.770800	-0.715366	-0.141223	0.829741	-0.714218	-0.240931	0.391745	-0.725774	-0.254057	0.353388	-0.725836	-0.193525	0.339905	-0.714729	-0.188175	0.383638	-0.716783	-0.332510	0.137116	-0.684433	-0.201366	0.052122	-0.723495	-0.171844	0.053298	-0.660847	-0.149605	0.042754	-0.660176	
505	2.5250	-0.275472	1.454309	-0.547860	-0.201111	1.445084	-0.716490	-0.223985	1.444377	-0.377393	-0.146923	1.411264	-0.543846	-0.130304	1.008704	-0.420582	-0.119556	1.010421	-0.641474	-0.185424	1.068606	-0.398281	-0.174067	1.060933	-0.674630	-0.282130	1.051543	-0.485031	-0.281293	1.051307	-0.591236	-0.283503	1.058434	-0.534619	-0.235939	0.812338	-0.369536	-0.221001	0.754667	-0.366738	-0.158773	0.769183	-0.354304	-0.166645	0.830158	-0.356697	-0.252289	0.423621	-0.363854	-0.264097	0.382137	-0.367912	-0.204107	0.372272	-0.371436	-0.196825	0.412166	-0.371586	-0.326802	0.146705	-0.425323	-0.207844	0.042871	-0.381567	-0.177272	0.045502	-0.446217	-0.155441	0.034514	-0.441123	-0.213057	0.811641	-0.716824	-0.190788	0.754254	-0.718095	-0.128898	0.772252	-0.716110	-0.142132	0.831168	-0.714797	-0.240676	0.393138	-0.725953	-0.253907	0.354821	-0.726020	-0.193442	0.341188	-0.714679	-0.187979	0.384903	-0.716768	-0.332742	0.138241	-0.684797	-0.200864	0.054342	-0.724097	-0.171336	0.055374	-0.661408	-0.149026	0.044733	-0.660703	
506	2.5300	-0.275508	1.455476	-0.547624	-0.201330	1.446775	-0.716304	-0.223685	1.445904	-0.377413	-0.147058	1.412671	-0.543848	-0.130376	1.009903	-0.420820	-0.119674	1.011706	-0.641595	-0.185182	1.069951	-0.398389	-0.174222	1.062294	-0.674743	-0.282036	1.053140	-0.485014	-0.281281	1.052960	-0.591257	-0.283461	1.060006	-0.534616	-0.236242	0.813533	-0.370075	-0.221394	0.755838	-0.367264	-0.159213	0.770265	-0.354466	-0.166989	0.831231	-0.356814	-0.251853	0.424583	-0.363724	-0.263645	0.383082	-0.367711	-0.203655	0.373270	-0.371535	-0.196413	0.413179	-0.371723	-0.326803	0.147653	-0.425094	-0.207386	0.044666	-0.380843	-0.176728	0.046924	-0.445213	-0.154910	0.035966	-0.439752	-0.213925	0.812658	-0.716197	-0.191576	0.755292	-0.717704	-0.129684	0.773396	-0.716754	-0.142996	0.832286	-0.715317	-0.240390	0.394394	-0.726053	-0.253752	0.356121	-0.726129	-0.193362	0.342311	-0.714581	-0.187759	0.385998	-0.716696	-0.333113	0.139252	-0.685090	-0.200539	0.056441	-0.724656	-0.170999	0.057289	-0.661947	-0.148613	0.046529	-0.661238	
507	2.5350	-0.275555	1.456584	-0.547550	-0.201394	1.448141	-0.716172	-0.223403	1.447105	-0.377396	-0.147156	1.413776	-0.543846	-0.130479	1.010865	-0.421045	-0.119813	1.012751	-0.641722	-0.184952	1.071038	-0.398491	-0.174436	1.063373	-0.674860	-0.281986	1.054450	-0.484978	-0.281330	1.054308	-0.591271	-0.283464	1.061293	-0.534594	-0.236486	0.814458	-0.370559	-0.221693	0.756745	-0.367753	-0.159587	0.771139	-0.354741	-0.167271	0.832073	-0.356991	-0.251242	0.425408	-0.363566	-0.263085	0.383919	-0.367485	-0.203116	0.374072	-0.371713	-0.195860	0.413969	-0.371953	-0.327039	0.148387	-0.425027	-0.206975	0.046560	-0.379969	-0.176180	0.048462	-0.444152	-0.154318	0.037565	-0.438425	-0.214699	0.813334	-0.715609	-0.192246	0.756007	-0.717304	-0.130374	0.774250	-0.717291	-0.143790	0.833104	-0.715756	-0.240074	0.395509	-0.726083	-0.253577	0.357280	-0.726175	-0.193271	0.343269	-0.714438	-0.187509	0.386936	-0.716573	-0.333606	0.140153	-0.685309	-0.200420	0.058362	-0.725157	-0.170837	0.059010	-0.662446	-0.148389	0.048115	-0.661755	
508	2.5400	-0.275652	1.457240	-0.547283	-0.201277	1.449167	-0.716088	-0.223142	1.447977	-0.377339	-0.147212	1.414590	-0.543843	-0.130601	1.011590	-0.421248	-0.119971	1.013547	-0.641855	-0.184749	1.071876	-0.398584	-0.174704	1.064174	-0.674976	-0.281978	1.055464	-0.484931	-0.281434	1.055333	-0.591278	-0.283512	1.062287	-0.534552	-0.236667	0.815117	-0.370971	-0.221891	0.757392	-0.368187	-0.159853	0.771806	-0.355076	-0.167480	0.832682	-0.357225	-0.250477	0.426108	-0.363401	-0.262435	0.384637	-0.367254	-0.202516	0.374685	-0.371963	-0.195184	0.414568	-0.372228	-0.327492	0.148927	-0.425092	-0.206629	0.048506	-0.379006	-0.175641	0.050069	-0.443064	-0.153687	0.039251	-0.437163	-0.215363	0.813697	-0.715086	-0.192787	0.756420	-0.716923	-0.130950	0.774822	-0.717710	-0.144500	0.833636	-0.716114	-0.239733	0.396459	-0.726057	-0.253371	0.358281	-0.726171	-0.193158	0.344067	-0.714268	-0.187226	0.387713	-0.716406	-0.334204	0.140942	-0.685465	-0.200515	0.060061	-0.725577	-0.170875	0.060507	-0.662875	-0.148369	0.049489	-0.662213	
509	2.5450	-0.275764	1.457823	-0.547013	-0.201262	1.449880	-0.716014	-0.222902	1.448526	-0.377242	-0.147218	1.415114	-0.543839	-0.130736	1.012088	-0.421438	-0.120150	1.014095	-0.641993	-0.184586	1.072460	-0.398670	-0.175021	1.064702	-0.675090	-0.282011	1.056168	-0.484877	-0.281585	1.056033	-0.591276	-0.283606	1.062976	-0.534506	-0.236778	0.815497	-0.371294	-0.221977	0.757773	-0.368534	-0.159980	0.772264	-0.355454	-0.167610	0.833069	-0.357508	-0.249607	0.426669	-0.363250	-0.261734	0.385255	-0.367036	-0.201881	0.375127	-0.372276	-0.194424	0.414979	-0.372549	-0.328139	0.149296	-0.425253	-0.206363	0.050446	-0.378023	-0.175136	0.051707	-0.441989	-0.153058	0.040948	-0.435983	-0.215904	0.813770	-0.714648	-0.193190	0.756550	-0.716583	-0.131400	0.775124	-0.718001	-0.145102	0.833904	-0.716375	-0.239370	0.397229	-0.725990	-0.253139	0.359102	-0.726137	-0.193024	0.344688	-0.714079	-0.186918	0.388316	-0.716207	-0.334918	0.141605	-0.685547	-0.200808	0.061522	-0.725899	-0.171106	0.061784	-0.663213	-0.148544	0.050649	-0.662581	
510	2.5500	-0.275779	1.458116	-0.546952	-0.202007	1.450467	-0.715973	-0.222687	1.448755	-0.377104	-0.147169	1.415353	-0.543837	-0.130877	1.012361	-0.421597	-0.120351	1.014387	-0.642135	-0.184461	1.072788	-0.398751	-0.175379	1.064957	-0.675196	-0.282085	1.056558	-0.484824	-0.281776	1.056401	-0.591265	-0.283741	1.063365	-0.534449	-0.236812	0.815602	-0.371513	-0.221942	0.757894	-0.368789	-0.159960	0.772484	-0.355850	-0.167651	0.833247	-0.357831	-0.248658	0.427102	-0.363138	-0.261008	0.385773	-0.366846	-0.201235	0.375387	-0.372635	-0.193614	0.415202	-0.372925	-0.328956	0.149499	-0.425476	-0.206191	0.052312	-0.377085	-0.174696	0.053307	-0.440962	-0.152481	0.042592	-0.434879	-0.216317	0.813574	-0.714310	-0.193449	0.756421	-0.716299	-0.131715	0.775170	-0.718162	-0.145584	0.833911	-0.716529	-0.238983	0.397811	-0.725900	-0.252890	0.359739	-0.726080	-0.192870	0.345108	-0.713869	-0.186590	0.388727	-0.715989	-0.335742	0.142120	-0.685559	-0.201278	0.062738	-0.726106	-0.171519	0.062838	-0.663442	-0.148908	0.051597	-0.662837	
511	2.5550	-0.275759	1.458176	-0.546925	-0.202268	1.450653	-0.715977	-0.222496	1.448669	-0.376922	-0.147098	1.415329	-0.543831	-0.131017	1.012407	-0.421732	-0.120573	1.014426	-0.642284	-0.184393	1.072858	-0.398823	-0.175764	1.064947	-0.675293	-0.282205	1.056644	-0.484773	-0.282003	1.056440	-0.591246	-0.283910	1.063460	-0.534383	-0.236759	0.815442	-0.371636	-0.221775	0.757756	-0.368956	-0.159793	0.772487	-0.356272	-0.167596	0.833207	-0.358184	-0.247678	0.427405	-0.363062	-0.260281	0.386179	-0.366721	-0.200607	0.375468	-0.373046	-0.192778	0.415243	-0.373313	-0.329893	0.149515	-0.425699	-0.206127	0.054039	-0.376249	-0.174363	0.054822	-0.440020	-0.152008	0.044117	-0.433860	-0.216592	0.813129	-0.714083	-0.193558	0.756051	-0.716074	-0.131880	0.774978	-0.718193	-0.145931	0.833676	-0.716581	-0.238586	0.398193	-0.725790	-0.252635	0.360178	-0.726000	-0.192710	0.345309	-0.713643	-0.186247	0.388925	-0.715757	-0.336662	0.142482	-0.685500	-0.201897	0.063711	-0.726189	-0.172097	0.063657	-0.663545	-0.149442	0.052331	-0.662957	
